<?xml version="1.0" encoding="utf-8"?>
<!-- Generator: Adobe Illustrator 17.1.0, SVG Export Plug-In . SVG Version: 6.00 Build 0)  -->
<!DOCTYPE svg PUBLIC "-//W3C//DTD SVG 1.0//EN" "http://www.w3.org/TR/2001/REC-SVG-20010904/DTD/svg10.dtd">
<svg version="1.0" id="myLocation" width="100px" height="65px" xmlns="http://www.w3.org/2000/svg" xmlns:xlink="http://www.w3.org/1999/xlink" x="0px" y="0px"
	 viewBox="0 0 200 130" enable-background="new 0 0 200 130" xml:space="preserve">
<g id="Shape_3">
	<g>
		<path fill-rule="evenodd" clip-rule="evenodd" fill="#FBAD18" d="M109.2,91.1l8.4-49.8c0,0-8.9,5.1-18.3,5.1
			c-7.9,0-16.6-5.1-16.6-5.1l8.4,49.8l-28.9-3.4l38,36.2l38-36.2L109.2,91.1z"/>
	</g>
</g>
<g>
	<path fill="#FBAD18" d="M5,7.8h3.8l2.9,10.3c0.7,2.3,1.1,4.3,1.8,6.7h0.1c0.7-2.3,1.2-4.3,1.8-6.7l2.8-10.3H22l-6.3,20.5h-4.3
		L5,7.8z"/>
	<path fill="#FBAD18" d="M29.9,12.5c3.8,0,7.3,2.9,7.3,8.1c0,5.1-3.5,8-7.3,8c-3.8,0-7.3-2.9-7.3-8C22.6,15.5,26.1,12.5,29.9,12.5z
		 M29.9,25.7c2.3,0,3.6-2,3.6-5.1c0-3.1-1.4-5.1-3.6-5.1s-3.6,2-3.6,5.1C26.3,23.7,27.6,25.7,29.9,25.7z"/>
	<path fill="#FBAD18" d="M47.4,12.5c2,0,3.5,0.8,4.5,1.8l-1.7,2.3c-0.8-0.7-1.6-1.1-2.6-1.1c-2.5,0-4.2,2-4.2,5.1
		c0,3.1,1.7,5.1,4.1,5.1c1.3,0,2.3-0.6,3.2-1.3l1.5,2.3c-1.4,1.3-3.3,2-5,2c-4.2,0-7.4-2.9-7.4-8C39.8,15.5,43.3,12.5,47.4,12.5z"/>
	<path fill="#FBAD18" d="M60.5,12.5c4.2,0,6.3,3,6.3,7.3c0,0.7-0.1,1.3-0.2,1.7H57c0.3,2.8,2.1,4.3,4.5,4.3c1.3,0,2.4-0.4,3.6-1.1
		l1.2,2.3c-1.5,1-3.3,1.7-5.3,1.7c-4.3,0-7.6-3-7.6-8C53.5,15.6,56.9,12.5,60.5,12.5z M59.1,5.8H62l3,4.6h-2.5l-1.9-2.7h-0.1
		l-1.9,2.7h-2.5L59.1,5.8z M63.7,19.2c0-2.4-1-3.9-3.1-3.9c-1.8,0-3.4,1.3-3.7,3.9H63.7z"/>
	<path fill="#FBAD18" d="M82.8,12.5c4.2,0,6.3,3,6.3,7.3c0,0.7-0.1,1.3-0.2,1.7h-9.8c0.3,2.8,2.1,4.3,4.5,4.3c1.3,0,2.4-0.4,3.6-1.1
		l1.2,2.3c-1.5,1-3.3,1.7-5.3,1.7c-4.3,0-7.6-3-7.6-8C75.7,15.6,79.2,12.5,82.8,12.5z M86,19.2c0-2.4-1-3.9-3.1-3.9
		c-1.8,0-3.4,1.3-3.7,3.9H86z"/>
	<path fill="#FBAD18" d="M92.7,24.2c1.4,1.1,2.7,1.7,4.3,1.7c1.7,0,2.4-0.8,2.4-1.8c0-1.3-1.7-1.8-3.3-2.5c-2-0.8-4.3-1.9-4.3-4.5
		c0-2.7,2.2-4.6,5.6-4.6c2.1,0,3.8,0.9,5.1,1.8l-1.7,2.2c-1.1-0.8-2.2-1.3-3.4-1.3c-1.5,0-2.3,0.7-2.3,1.7c0,1.2,1.5,1.7,3.2,2.3
		c2.1,0.8,4.4,1.8,4.4,4.7c0,2.6-2.1,4.8-6,4.8c-2.1,0-4.3-0.9-5.8-2.1L92.7,24.2z"/>
	<path fill="#FBAD18" d="M106.6,15.8h-2.2v-2.7l2.4-0.2l0.4-4.2h3v4.2h3.9v2.8h-3.9v7.3c0,1.8,0.7,2.7,2.2,2.7
		c0.5,0,1.2-0.2,1.6-0.3l0.6,2.7c-0.8,0.3-1.9,0.6-3.1,0.6c-3.6,0-4.9-2.3-4.9-5.6V15.8z"/>
	<path fill="#FBAD18" d="M125.3,18.5c0-1.6-0.7-3-2.8-3c-1.5,0-3,0.7-4.3,1.5l-1.3-2.4c1.7-1.1,3.8-2,6.3-2c3.8,0,5.7,2.3,5.7,6.6
		v9.1h-2.9l-0.3-1.7h-0.1c-1.4,1.2-2.9,2.1-4.8,2.1c-2.7,0-4.6-1.8-4.6-4.5C116.2,20.9,119,19.1,125.3,18.5z M121.9,25.8
		c1.3,0,2.2-0.6,3.3-1.7v-3.4c-4.2,0.5-5.5,1.6-5.5,3.2C119.7,25.2,120.6,25.8,121.9,25.8z M123.6,10.4h-2.7l2.8-4.6h3.6L123.6,10.4
		z"/>
	<path fill="#FBAD18" d="M148,18.5c0-1.6-0.7-3-2.8-3c-1.5,0-3,0.7-4.3,1.5l-1.3-2.4c1.7-1.1,3.8-2,6.3-2c3.8,0,5.7,2.3,5.7,6.6v9.1
		h-2.9l-0.3-1.7h-0.1c-1.4,1.2-2.9,2.1-4.8,2.1c-2.7,0-4.6-1.8-4.6-4.5C139,20.9,141.8,19.1,148,18.5z M144.7,25.8
		c1.3,0,2.2-0.6,3.3-1.7v-3.4c-4.2,0.5-5.5,1.6-5.5,3.2C142.5,25.2,143.4,25.8,144.7,25.8z"/>
	<path fill="#FBAD18" d="M161.6,12.5c1.7,0,3,0.6,4.3,1.8h0.1l0.3-1.5h2.8v21.4h-3.6v-5l0.1-2.5c-1.1,1.1-2.7,1.9-4.2,1.9
		c-3.8,0-6.3-3-6.3-8C155.1,15.6,158.2,12.5,161.6,12.5z M162.3,25.7c1.2,0,2.2-0.5,3.2-1.7v-7.2c-1.1-0.9-2.1-1.3-3.1-1.3
		c-2,0-3.6,1.8-3.6,5.1C158.8,23.9,160,25.7,162.3,25.7z"/>
	<path fill="#FBAD18" d="M173.4,12.9h3.6v9.2c0,2.5,0.7,3.5,2.4,3.5c1.3,0,2.3-0.6,3.4-2.1V12.9h3.6v15.4h-2.9l-0.3-2.3h-0.1
		c-1.3,1.6-2.8,2.6-4.9,2.6c-3.3,0-4.7-2.2-4.7-6.1V12.9z"/>
	<path fill="#FBAD18" d="M190.5,8.2c0-1.2,0.9-2.1,2.2-2.1c1.3,0,2.2,0.8,2.2,2.1c0,1.2-0.9,2-2.2,2C191.5,10.2,190.5,9.4,190.5,8.2
		z M191,12.9h3.6v15.4H191V12.9z"/>
</g>
</svg>
