<?xml version="1.0" encoding="utf-8"?>
<!-- Generator: Adobe Illustrator 17.1.0, SVG Export Plug-In . SVG Version: 6.00 Build 0)  -->
<!DOCTYPE svg PUBLIC "-//W3C//DTD SVG 1.0//EN" "http://www.w3.org/TR/2001/REC-SVG-20010904/DTD/svg10.dtd">
<svg version="1.0" id="myLocation" width="100px" height="65px" xmlns="http://www.w3.org/2000/svg" xmlns:xlink="http://www.w3.org/1999/xlink" x="0px" y="0px"
	 viewBox="0 0 100 65" enable-background="new 0 0 100 65" xml:space="preserve">
<g>
	<path fill="#FBAD18" d="M2.5,3.9h1.9l1.5,5.2c0.3,1.1,0.6,2.2,0.9,3.3h0.1c0.3-1.1,0.6-2.1,0.9-3.4l1.4-5.2H11L7.8,14.1H5.7
		L2.5,3.9z"/>
	<path fill="#FBAD18" d="M14.9,6.2c1.9,0,3.7,1.4,3.7,4.1c0,2.6-1.8,4-3.6,4s-3.6-1.4-3.6-4C11.3,7.8,13.1,6.2,14.9,6.2z M14.9,12.9
		c1.2,0,1.8-1,1.8-2.6S16,7.8,14.9,7.8s-1.8,1-1.8,2.6S13.8,12.9,14.9,12.9z"/>
	<path fill="#FBAD18" d="M23.7,6.2c1,0,1.8,0.4,2.2,0.9l-0.9,1.2c-0.4-0.3-0.8-0.6-1.3-0.6c-1.2,0-2.1,1-2.1,2.6s0.9,2.6,2,2.6
		c0.6,0,1.1-0.3,1.6-0.6l0.8,1.1c-0.7,0.6-1.6,1-2.5,1c-2.1,0-3.7-1.4-3.7-4C19.9,7.8,21.6,6.2,23.7,6.2z"/>
	<path fill="#FBAD18" d="M30.2,6.2c2.1,0,3.2,1.5,3.2,3.6c0,0.4,0,0.6-0.1,0.9h-4.8c0.1,1.4,1,2.1,2.2,2.1c0.6,0,1.2-0.2,1.8-0.6
		l0.6,1.1c-0.8,0.5-1.6,0.9-2.6,0.9c-2.1,0-3.8-1.5-3.8-4C26.8,7.8,28.5,6.2,30.2,6.2z M29.5,2.9H31l1.5,2.3h-1.2l-1-1.3h0l-1,1.3
		H28L29.5,2.9z M31.9,9.6c0-1.2-0.5-1.9-1.5-1.9c-0.9,0-1.7,0.6-1.9,1.9H31.9z"/>
	<path fill="#FBAD18" d="M41.4,6.2c2.1,0,3.2,1.5,3.2,3.6c0,0.4,0,0.6-0.1,0.9h-4.9c0.2,1.4,1,2.1,2.2,2.1c0.7,0,1.2-0.2,1.8-0.6
		l0.6,1.1c-0.8,0.5-1.7,0.9-2.7,0.9c-2.2,0-3.8-1.5-3.8-4C37.8,7.8,39.6,6.2,41.4,6.2z M43,9.6c0-1.2-0.5-1.9-1.5-1.9
		c-0.9,0-1.7,0.6-1.8,1.9H43z"/>
	<path fill="#FBAD18" d="M46.3,12.1c0.7,0.6,1.3,0.9,2.2,0.9c0.8,0,1.2-0.4,1.2-0.9c0-0.6-0.8-0.9-1.7-1.2c-1-0.4-2.2-0.9-2.2-2.2
		c0-1.3,1.1-2.3,2.8-2.3c1,0,1.9,0.4,2.5,0.9l-0.8,1.1c-0.5-0.4-1.1-0.7-1.7-0.7c-0.8,0-1.2,0.3-1.2,0.8c0,0.6,0.8,0.9,1.6,1.1
		c1,0.4,2.2,0.9,2.2,2.4c0,1.3-1,2.4-3,2.4c-1,0-2.2-0.4-2.9-1.1L46.3,12.1z"/>
	<path fill="#FBAD18" d="M53.3,7.9h-1.1V6.6l1.2-0.1l0.2-2.1h1.5v2.1h2v1.4h-2v3.6c0,0.9,0.3,1.4,1.1,1.4c0.2,0,0.6-0.1,0.8-0.1
		l0.3,1.4c-0.4,0.1-1,0.3-1.5,0.3c-1.8,0-2.5-1.1-2.5-2.8V7.9z"/>
	<path fill="#FBAD18" d="M62.7,9.2c0-0.8-0.3-1.5-1.4-1.5c-0.8,0-1.5,0.4-2.2,0.8l-0.7-1.2c0.8-0.6,1.9-1,3.2-1
		c1.9,0,2.8,1.2,2.8,3.3v4.6H63l-0.2-0.9h0c-0.7,0.6-1.5,1.1-2.4,1.1c-1.3,0-2.3-0.9-2.3-2.2C58.1,10.4,59.5,9.6,62.7,9.2z M61,12.9
		c0.7,0,1.1-0.3,1.7-0.9v-1.7c-2.1,0.2-2.8,0.8-2.8,1.6C59.8,12.6,60.3,12.9,61,12.9z M61.8,5.2h-1.3l1.4-2.3h1.8L61.8,5.2z"/>
	<path fill="#FBAD18" d="M74,9.2c0-0.8-0.3-1.5-1.4-1.5c-0.8,0-1.5,0.4-2.2,0.8l-0.7-1.2c0.8-0.6,1.9-1,3.2-1c1.9,0,2.8,1.2,2.8,3.3
		v4.6h-1.4l-0.2-0.9h-0.1c-0.7,0.6-1.4,1.1-2.4,1.1c-1.3,0-2.3-0.9-2.3-2.2C69.5,10.4,70.9,9.6,74,9.2z M72.3,12.9
		c0.7,0,1.1-0.3,1.7-0.9v-1.7c-2.1,0.2-2.8,0.8-2.8,1.6C71.2,12.6,71.7,12.9,72.3,12.9z"/>
	<path fill="#FBAD18" d="M80.8,6.2c0.8,0,1.5,0.3,2.2,0.9H83l0.2-0.8h1.4v10.7h-1.8v-2.5l0.1-1.2c-0.6,0.6-1.3,0.9-2.1,0.9
		c-1.9,0-3.2-1.5-3.2-4C77.6,7.8,79.1,6.2,80.8,6.2z M81.2,12.9c0.6,0,1.1-0.2,1.6-0.9V8.4c-0.6-0.4-1.1-0.7-1.6-0.7
		c-1,0-1.8,0.9-1.8,2.5C79.4,11.9,80,12.9,81.2,12.9z"/>
	<path fill="#FBAD18" d="M86.7,6.4h1.8V11c0,1.2,0.3,1.8,1.2,1.8c0.7,0,1.2-0.3,1.7-1.1V6.4h1.8v7.7h-1.4L91.6,13h-0.1
		c-0.7,0.8-1.4,1.3-2.4,1.3c-1.7,0-2.3-1.1-2.3-3.1L86.7,6.4L86.7,6.4z"/>
	<path fill="#FBAD18" d="M95.2,4.1c0-0.6,0.4-1,1.1-1s1.1,0.4,1.1,1c0,0.6-0.4,1-1.1,1C95.8,5.1,95.2,4.7,95.2,4.1z M95.5,6.4h1.8
		v7.7h-1.8V6.4z"/>
</g>
<g id="Shape_2_copy_3">
	<g>
		<path fill-rule="evenodd" clip-rule="evenodd" fill="#FFAE00" d="M50,19.7c-8.3,0-15,6.7-15,15C35,42.9,50,62,50,62s15-19,15-27.3
			C65,26.4,58.3,19.7,50,19.7z M50,40.7c-3.3,0-6-2.7-6-6c0-3.3,2.7-6,6-6c3.3,0,6,2.7,6,6C56,38,53.3,40.7,50,40.7z"/>
	</g>
</g>
</svg>
